<?xml version="1.0" encoding="UTF-8"?>
<svg width="597.32" height="227.51" version="1.1" viewBox="0 0 597.32 227.51" xml:space="preserve" xmlns="http://www.w3.org/2000/svg" xmlns:cc="http://creativecommons.org/ns#" xmlns:dc="http://purl.org/dc/elements/1.1/" xmlns:rdf="http://www.w3.org/1999/02/22-rdf-syntax-ns#"><metadata><rdf:RDF><cc:Work rdf:about=""><dc:format>image/svg+xml</dc:format><dc:type rdf:resource="http://purl.org/dc/dcmitype/StillImage"/><dc:title/></cc:Work></rdf:RDF></metadata><defs><clipPath id="clipPath114"><path d="M 0,170.635 H 447.991 V 0 H 0 Z"/></clipPath></defs><g transform="matrix(1.3333 0 0 -1.3333 0 227.51)"><g><path d="m435.27 66.585h-428.22v58.43h428.22z" fill="#efefef"/><path d="m435.27 14.002h-428.22v52.583h428.22z" fill="#707070"/><text transform="matrix(1 0 0 -1 98.574 103.84)" fill="#000000" font-family="'Avenir Next'" font-size="8px"><tspan x="0 4.112 9 11.016 13.032 17.92 23.888" y="0">Follows</tspan><tspan x="6.7600002 13.56 15.576" y="9.6000004">Old</tspan><tspan x="3.9679999 8.6639996 13.312 15.328 19.903999" y="19.200001">Rules</tspan></text></g><path d="m135.48 76.604h-46.436v38.532h46.436z" fill="none" stroke="#000" stroke-miterlimit="10"/><text transform="matrix(1 0 0 -1 161.91 103.84)" fill="#000000" font-family="'Avenir Next'" font-size="8px"><tspan x="0 4.112 9 11.016 13.032 17.92 23.888" y="0">Follows</tspan><tspan x="6.7600002 13.56 15.576" y="9.6000004">Old</tspan><tspan x="3.9679999 8.6639996 13.312 15.328 19.903999" y="19.200001">Rules</tspan></text><path d="m198.82 76.604h-46.435v38.532h46.435z" fill="none" stroke="#000" stroke-miterlimit="10"/><text transform="matrix(1 0 0 -.96419 380.6 104.24)" fill="#000000" font-family="'Avenir Next'" font-size="8px"><tspan x="0 4.112 9 11.016 13.032 17.92 23.888" y="0">Follows</tspan><tspan x="6.7600002 13.56 15.576" y="9.6000004">Old</tspan><tspan x="3.9679999 8.6639996 13.312 15.328 19.903999" y="19.200001">Rules</tspan></text><path d="m417.5 77.984h-46.435v37.152h46.435z" fill="none" stroke="#000" stroke-miterlimit="10"/><path d="m313.08 76.604h-91.883v38.532h91.883z" stroke="#000" stroke-miterlimit="10"/><text transform="matrix(1 0 0 -1 234.72 103.84)" fill="#000000" font-family="'Avenir Next'" font-size="8px"><tspan x="0 4.112 9 11.016 13.032 17.92 23.888 27.440001 29.440001 36.240002 38.256001 43.352001 45.352001 50.048 54.695999 56.712002 61.287998" y="0" fill="#ffffff">Follows Old Rules</tspan><tspan x="11.056 16.143999 20.792 23.327999 25.184 30.024 32.023998 36.911999 38.928001 43.119202 45.655201 50.231201" y="9.6000004" fill="#ffffff">But Violates</tspan><tspan x="13.344 19.455999 24.032 30 32 36.695202 41.343201 43.3592 47.9352" y="19.200001"><tspan fill="#ffffff">New Rule</tspan>s</tspan><tspan x="-6.5440001 -2.4319999 2.4560001 4.4720001 6.4879999 11.376 17.344" y="55.040001">Follows</tspan><tspan x="-12.92 -6.1199999 -4.1040001 0.99199998 2.9920001 8.6239996 10.624 16.736 21.312" y="64.639999">Old &amp; New</tspan><tspan x="-2.5680001 2.128 6.776 8.7919998 13.368" y="74.239998">Rules</tspan></text><path d="m265.09 21.567h-46.436v38.531h46.436z" fill="none" stroke="#000" stroke-miterlimit="10"/><text transform="matrix(1 0 0 -1 300.95 49.098)" fill="#000000" font-family="'Avenir Next'" font-size="8px"><tspan x="0 4.112 9 11.016 13.032 17.92 23.888" y="0">Follows</tspan><tspan x="-6.3759999 0.42399999 2.4400001 7.5359998 9.5360003 15.168 17.167999 23.280001 27.856001" y="9.6000004">Old &amp; New</tspan><tspan x="3.9760001 8.6719999 13.32 15.336 19.912001" y="19.200001">Rules</tspan></text><path d="m337.86 21.865h-46.435v38.531h46.435z" fill="none" stroke="#000" stroke-miterlimit="10"/><text transform="matrix(1 0 0 -1 15.624 103.84)" fill="#ffffff" font-family="'Avenir Next'" font-size="8px"><tspan x="0 5.0879998 7.1040001 11.992 15.992 20.023199 23.575199 25.575199 29.7344 32.471199 37.3592" y="0" fill="#000000">Blocks From</tspan><tspan x="0 6.112 11 15.648 18.208 23.888 28.968 34.023998 36.8088 41.080799 46.1768 50.7528" y="9.6000004" fill="#000000">Non-Upgraded</tspan><tspan x="0 6.112 11 16.096001 20.672001" y="19.200001" fill="#000000">Nodes</tspan><tspan x="0 5.0879998 7.1040001 11.992 15.992 20.023199 23.575199 25.575199 29.7344 32.471199 37.3592" y="54.736">Blocks From</tspan><tspan x="0 5.6799998 10.76 15.816 18.6 22.872 27.968 32.543999" y="64.335999">Upgraded</tspan><tspan x="0 6.112 11 16.096001 20.672001" y="73.935997">Nodes</tspan></text><text transform="matrix(1,0,0,-1,192.25,146.27)" fill="#000000" font-family="'Avenir Next'" font-size="15px" font-weight="bold"><tspan x="0 10.665 14.415 23.280001 32.759998 37.860001 43.439999 47.189999 55.110001 64.589996 70.529999" y="0">A Soft Fork</tspan></text><g transform="translate(135.39 95.869)"><path d="m0 0h15.997z" fill="#fff"/></g><g transform="translate(135.39 95.869)"><path d="m0 0h9.961" fill="none" stroke="#000" stroke-miterlimit="10"/></g><g clip-path="url(#clipPath114)"><g transform="translate(151.39 95.869)"><path d="m0 0c-2.84-1.054-6.363-2.852-8.548-4.756l1.721 4.756-1.721 4.755c2.185-1.904 5.708-3.702 8.548-4.755"/></g><g transform="translate(198.19 95.869)"><path d="m0 0h23.007" fill="#fff"/></g><g transform="translate(198.19 95.869)"><path d="m0 0h16.972" fill="none" stroke="#000" stroke-miterlimit="10"/></g><g transform="translate(221.2 95.869)"><path d="m0 0c-2.84-1.054-6.363-2.852-8.548-4.756l1.721 4.756-1.721 4.755c2.185-1.904 5.708-3.702 8.548-4.755"/></g><g transform="translate(265.09 42.339)"><path d="m0 0h27.062" fill="#fff"/></g><g transform="translate(265.09 42.339)"><path d="m0 0h21.027" fill="none" stroke="#000" stroke-miterlimit="10"/></g><g transform="translate(292.15 42.339)"><path d="m0 0c-2.84-1.054-6.363-2.852-8.547-4.756l1.72 4.756-1.72 4.755c2.184-1.904 5.707-3.702 8.547-4.755"/></g><g transform="translate(198.19 95.869)"><path d="m0 0 20.465-35.771" fill="#fff"/></g><g transform="translate(198.19 95.869)"><path d="m0 0 17.468-30.533" fill="none" stroke="#000" stroke-miterlimit="10"/></g><g transform="translate(218.66 60.098)"><path d="m0 0c-2.325 1.942-5.635 4.107-8.372 5.058l4.981 0.868 3.274 3.854c-0.569-2.841-0.379-6.792 0.117-9.78"/></g><g transform="translate(337.86 42.51)"><path d="m0 0 33.206 35.473" fill="#fff"/></g><g transform="translate(337.86 42.51)"><path d="m0 0 29.082 31.067" fill="none" stroke="#000" stroke-miterlimit="10"/></g><g transform="translate(371.07 77.984)"><path d="m0 0c-1.172-2.793-2.267-6.594-2.369-9.49l-2.297 4.506-4.647 1.993c2.883 0.294 6.604 1.637 9.313 2.991"/></g></g></g></svg>
