<?xml version="1.0" encoding="UTF-8"?>
<svg width="629.4" height="231.12" version="1.1" viewBox="0 0 629.4 231.12" xml:space="preserve" xmlns="http://www.w3.org/2000/svg" xmlns:cc="http://creativecommons.org/ns#" xmlns:dc="http://purl.org/dc/elements/1.1/" xmlns:rdf="http://www.w3.org/1999/02/22-rdf-syntax-ns#"><metadata><rdf:RDF><cc:Work rdf:about=""><dc:format>image/svg+xml</dc:format><dc:type rdf:resource="http://purl.org/dc/dcmitype/StillImage"/><dc:title/></cc:Work></rdf:RDF></metadata><defs><clipPath id="clipPath96"><path d="M 0,173.338 H 472.047 V 0 H 0 Z"/></clipPath><clipPath id="clipPath152"><path d="M 0,173.338 H 472.047 V 0 H 0 Z"/></clipPath><clipPath id="clipPath170"><path d="M 0,173.338 H 472.047 V 0 H 0 Z"/></clipPath><clipPath id="clipPath200"><path d="M 0,173.338 H 472.047 V 0 H 0 Z"/></clipPath></defs><g transform="matrix(1.3333 0 0 -1.3333 0 231.12)"><g><path d="m445.03 66.923h-428.22v58.43h428.22z" fill="#efefef"/><path d="m445.03 14.34h-428.22v52.583h428.22z" fill="#707070"/><text transform="matrix(1 0 0 -1 108.33 104.18)" fill="#000000" font-family="'Avenir Next'" font-size="8px"><tspan x="0 4.112 9 11.016 13.032 17.92 23.888" y="0">Follows</tspan><tspan x="6.7600002 13.56 15.576" y="9.6000004">Old</tspan><tspan x="3.9679999 8.6639996 13.312 15.328 19.903999" y="19.200001">Rules</tspan></text></g><path d="m145.24 76.942h-46.436v38.531h46.436z" fill="none" stroke="#000" stroke-miterlimit="10"/><text transform="matrix(1 0 0 -1 171.67 104.18)" fill="#000000" font-family="'Avenir Next'" font-size="8px"><tspan x="0 4.112 9 11.016 13.032 17.92 23.888" y="0">Follows</tspan><tspan x="6.7600002 13.56 15.576" y="9.6000004">Old</tspan><tspan x="3.9679999 8.6639996 13.312 15.328 19.903999" y="19.200001">Rules</tspan></text><path d="m208.58 76.942h-46.435v38.531h46.435z" fill="none" stroke="#000" stroke-miterlimit="10"/><text transform="matrix(1 0 0 -1 237.94 49.139)" fill="#000000" font-family="'Avenir Next'" font-size="8px"><tspan x="0 4.112 9 11.016 13.032 17.92 23.888" y="0">Follows</tspan><tspan x="5.3920002 11.504 16.08" y="9.6000004">New</tspan><tspan x="3.9760001 8.6719999 13.32 15.336 19.912001" y="19.200001">Rules</tspan></text><path d="m276.84 21.905h-45.918v38.531h45.918z" fill="none" stroke="#000" stroke-miterlimit="10"/><text transform="matrix(1 0 0 -1 303.71 48.601)" fill="#000000" font-family="'Avenir Next'" font-size="8px"><tspan x="0 4.112 9 11.016 13.032 17.92 23.888" y="0">Follows</tspan><tspan x="5.3920002 11.504 16.08" y="9.6000004">New</tspan><tspan x="3.9760001 8.6719999 13.32 15.336 19.912001" y="19.200001">Rules</tspan></text><path d="m340.62 21.367h-46.436v38.531h46.436z" fill="none" stroke="#000" stroke-miterlimit="10"/><text transform="matrix(1 0 0 -1 25.384 104.18)" fill="#ffffff" font-family="'Avenir Next'" font-size="8px"><tspan x="0 5.0879998 7.1040001 11.992 15.992 20.023199 23.575199 25.575199 29.7344 32.471199 37.3592" y="0" fill="#000000">Blocks From</tspan><tspan x="0 6.112 11 15.648 18.208 23.888 28.968 34.023998 36.8088 41.080799 46.1768 50.7528" y="9.6000004" fill="#000000">Non-Upgraded</tspan><tspan x="0 6.112 11 16.096001 20.672001" y="19.200001" fill="#000000">Nodes</tspan><tspan x="0 5.0879998 7.1040001 11.992 15.992 20.023199 23.575199 25.575199 29.7344 32.471199 37.3592" y="54.736">Blocks From</tspan><tspan x="0 5.6799998 10.76 15.816 18.6 22.872 27.968 32.543999" y="64.335999">Upgraded</tspan><tspan x="0 6.112 11 16.096001 20.672001" y="73.935997">Nodes</tspan></text><text transform="matrix(1 0 0 -1 202.01 146.61)" fill="#000000" font-family="'Avenir Next'" font-size="15px" font-weight="bold"><tspan x="0 10.665 14.415 25.875 34.365002 40.035 49.904999 53.654999 61.575001 71.055 76.995003" y="0">A Hard Fork</tspan></text><g transform="translate(145.15 96.207)"><path d="m0 0h15.996z" fill="#fff"/></g><g transform="translate(145.15 96.208)"><path d="m0 0h9.961" fill="none" stroke="#000" stroke-miterlimit="10"/></g><g clip-path="url(#clipPath96)"><g transform="translate(161.15 96.208)"><path d="m0 0c-2.84-1.054-6.363-2.852-8.548-4.756l1.721 4.756-1.721 4.755c2.185-1.904 5.708-3.702 8.548-4.755"/></g><g transform="translate(207.95 96.208)"><path d="m0 0h23.007" fill="#fff"/></g><g transform="translate(207.95 96.208)"><path d="m0 0h16.972" fill="none" stroke="#000" stroke-miterlimit="10"/></g><g transform="translate(230.96 96.208)"><path d="m0 0c-2.84-1.054-6.363-2.852-8.547-4.756l1.72 4.756-1.72 4.755c2.184-1.904 5.707-3.702 8.547-4.755"/></g><g transform="translate(276.3 41.469)"><path d="m0 0h18.892" fill="#fff"/></g><g transform="translate(276.3 41.469)"><path d="m0 0h12.856" fill="none" stroke="#000" stroke-miterlimit="10"/></g><g transform="translate(295.19 41.469)"><path d="m0 0c-2.84-1.054-6.363-2.852-8.547-4.756l1.72 4.756-1.72 4.755c2.184-1.904 5.707-3.702 8.547-4.755"/></g><g transform="translate(207.95 96.208)"><path d="m0 0 22.97-35.771" fill="#fff"/></g><g transform="translate(207.95 96.208)"><path d="m0 0 19.708-30.692" fill="none" stroke="#000" stroke-miterlimit="10"/></g><g transform="translate(230.92 60.436)"><path d="m0 0c-2.421 1.82-5.837 3.814-8.619 4.623l4.931 1.122 3.072 4.017c-0.423-2.867-0.032-6.803 0.616-9.762"/></g></g><text transform="matrix(1 0 0 -1 239.93 104.18)" fill="#000000" font-family="'Avenir Next'" font-size="8px"><tspan x="0 4.112 9 11.016 13.032 17.92 23.888" y="0">Follows</tspan><tspan x="6.7600002 13.56 15.576" y="9.6000004">Old</tspan><tspan x="3.9679999 8.6639996 13.312 15.328 19.903999" y="19.200001">Rules</tspan></text><g clip-path="url(#clipPath152)"><path d="m276.84 76.942h-46.436v38.531h46.436z" fill="none" stroke="#000" stroke-miterlimit="10"/></g><text transform="matrix(1 0 0 -1 303.27 104.18)" fill="#000000" font-family="'Avenir Next'" font-size="8px"><tspan x="0 4.112 9 11.016 13.032 17.92 23.888" y="0">Follows</tspan><tspan x="6.7600002 13.56 15.576" y="9.6000004">Old</tspan><tspan x="3.9679999 8.6639996 13.312 15.328 19.903999" y="19.200001">Rules</tspan></text><g clip-path="url(#clipPath170)"><path d="m340.18 76.942h-46.435v38.531h46.435z" fill="none" stroke="#000" stroke-miterlimit="10"/><g transform="translate(276.75 96.208)"><path d="m0 0h15.996" fill="#fff"/></g><g transform="translate(276.75 96.208)"><path d="m0 0h9.961" fill="none" stroke="#000" stroke-miterlimit="10"/></g><g transform="translate(292.74 96.208)"><path d="m0 0c-2.84-1.054-6.363-2.852-8.548-4.756l1.721 4.756-1.721 4.755c2.185-1.904 5.708-3.702 8.548-4.755"/></g></g><text transform="matrix(1 0 0 -1 368.04 48.331)" fill="#000000" font-family="'Avenir Next'" font-size="8px"><tspan x="0 4.112 9 11.016 13.032 17.92 23.888" y="0">Follows</tspan><tspan x="5.3920002 11.504 16.08" y="9.6000004">New</tspan><tspan x="3.9760001 8.6719999 13.32 15.336 19.912001" y="19.200001">Rules</tspan></text><g clip-path="url(#clipPath200)"><path d="m404.95 21.097h-46.435v38.531h46.435z" fill="none" stroke="#000" stroke-miterlimit="10"/><g transform="translate(340.63 41.2)"><path d="m0 0h18.892" fill="#fff"/></g><g transform="translate(340.63 41.2)"><path d="m0 0h12.856" fill="none" stroke="#000" stroke-miterlimit="10"/></g><g transform="translate(359.52 41.2)"><path d="m0 0c-2.84-1.054-6.363-2.852-8.548-4.756l1.721 4.756-1.721 4.755c2.185-1.904 5.708-3.702 8.548-4.755"/></g></g></g></svg>
