<?xml version="1.0" encoding="UTF-8"?>
<svg width="950.39" height="416.22" version="1.1" viewBox="0 0 950.39 416.22" xml:space="preserve" xmlns="http://www.w3.org/2000/svg" xmlns:cc="http://creativecommons.org/ns#" xmlns:dc="http://purl.org/dc/elements/1.1/" xmlns:rdf="http://www.w3.org/1999/02/22-rdf-syntax-ns#"><metadata><rdf:RDF><cc:Work rdf:about=""><dc:format>image/svg+xml</dc:format><dc:type rdf:resource="http://purl.org/dc/dcmitype/StillImage"/><dc:title/></cc:Work></rdf:RDF></metadata><defs><clipPath id="clipPath38"><path d="m0 312.17h712.8v-312.17h-712.8z"/></clipPath><clipPath id="clipPath62"><path d="m0 312.17h712.8v-312.17h-712.8z"/></clipPath><clipPath id="clipPath80"><path d="m-11.592 10.764h23.184v-21.528h-23.184z"/></clipPath><clipPath id="clipPath98"><path d="m-11.592 10.764h23.184v-21.528h-23.184z"/></clipPath></defs><g transform="matrix(1.3333 0 0 -1.3333 0 416.22)"><path d="m297.05 85.631h-266.92v154.37h266.92z" fill="none" stroke="#000" stroke-miterlimit="10"/><text transform="matrix(1 0 0 -1 111.89 247.67)" fill="#000000" font-family="'Myriad Pro'" font-size="17.937px"><tspan x="0 9.7216911 13.954753 23.802 31.837643 40.249954 48.285595 58.240463 66.885956 71.083145 81.03801 84.840591" y="0">Blockchain A</tspan></text><path d="m678.54 85.631h-285.14v154.37h285.14z" fill="none" stroke="#000" stroke-miterlimit="10"/><text transform="matrix(1 0 0 -1 508.59 250.89)" fill="#000000" font-family="'Myriad Pro'" font-size="19.062px"><tspan x="0 10.331766 14.830469 25.295671 33.835583 42.775803 51.315712 61.895287 71.083313 75.543892 86.123474 90.16468" y="0">Blockchain B</tspan></text><g clip-path="url(#clipPath38)"><g transform="translate(617.31 181.49)"><path d="m0 0c0 5.046 4.097 9.143 9.143 9.143s9.141-4.097 9.141-9.143c0-5.047-4.095-9.143-9.141-9.143s-9.143 4.097-9.143 9.143m-47.247-46.115c-2.836-2.832-2.836-7.442 0-10.275 2.834-2.835 7.442-2.835 10.257 0l2.048 2.029 8.541-8.539c1.46-1.463 3.8-1.463 5.263 0l12.728 12.728c1.463 1.46 1.463 3.802 0 5.264l-8.538 8.539 15.211 15.23c3.256-1.681 6.966-2.631 10.88-2.631 13.128 0 23.77 10.64 23.77 23.77 0 13.128-10.642 23.77-23.77 23.77-13.129 0-23.77-10.642-23.77-23.77 0-3.914 0.95-7.625 2.632-10.88z" fill="#010101"/></g><g transform="translate(105.63 182.87)"><path d="m0 0 9.616-9.616 9.616 9.616-9.616 9.616zm-52.89-52.89 34.264 34.263c-6.16 10.431-4.76 24.09 4.202 33.052 10.622 10.622 27.843 10.622 38.465 0s10.622-27.844 0-38.466c-8.962-8.961-22.621-10.362-33.051-4.202l-4.823-4.823-2.395-12.719-12.515-2.191-1.943-12.267-12.587-2.263-9.678 0.063z"/></g></g><text transform="matrix(1 0 0 -1 185.46 194.11)" fill="#000000" font-family="'Myriad Pro'" font-size="13.327px"><tspan x="0 6.5303769 13.927029 17.045616 22.323227 25.148615 28.267202 33.544815 36.370201 47.313248 53.590405 56.415794 62.666298 69.343277" y="0">This is my key</tspan></text><text transform="matrix(1 0 0 -1 442.57 155.12)" fill="#000000" font-family="'Myriad Pro'" font-size="14.702px"><tspan x="0 7.2041268 15.363903 18.804241 24.626352 27.74324 31.183578 37.005688 40.122578 52.193165 59.117947 62.234837 69.130211 76.496063" y="0">This is my key</tspan></text><g clip-path="url(#clipPath62)"><g transform="translate(152.13 186.67)"><path d="m0 0 407.33-4" fill="none" stroke="#000" stroke-miterlimit="10" stroke-width="2"/></g><g transform="translate(151.79 152.09)"><path d="m0 0 412.22-4.048" fill="none" stroke="#000" stroke-miterlimit="10" stroke-width="2"/></g><g transform="matrix(1 0 0 -1 561.68 183.01)"><g clip-path="url(#clipPath80)"><g transform="translate(-11.592 10.764)"><path d="m0 0 8.921-10.764-8.921-10.764 23.184 10.764z" fill="#fa0f12"/></g><g transform="translate(-11.592 10.764)"><path d="m0 0 8.921-10.764-8.921-10.764 23.184 10.764z"/></g></g></g><g transform="matrix(-1 0 0 1 154.42 153.09)"><g clip-path="url(#clipPath98)"><g transform="translate(-11.592 10.764)"><path d="m0 0 8.921-10.764-8.921-10.764 23.184 10.764z" fill="#fa0f12"/></g><g transform="translate(-11.592 10.764)"><path d="m0 0 8.921-10.764-8.921-10.764 23.184 10.764z"/></g></g></g></g></g></svg>
